<svg xmlns="http://www.w3.org/2000/svg" xmlns:xlink="http://www.w3.org/1999/xlink" width="500" zoomAndPan="magnify" viewBox="0 0 375 374.999991" height="500" preserveAspectRatio="xMidYMid meet" version="1.0"><defs><clipPath id="58aa0a761f"><path d="M 274 80 L 375 80 L 375 183 L 274 183 Z M 274 80 " clip-rule="nonzero"/></clipPath><clipPath id="c7994a937d"><path d="M 375 89.308594 L 363.820312 182.445312 L 274.039062 171.707031 L 278.402344 134.238281 L 319.21875 134.238281 L 319.21875 118.925781 C 319.222656 115.300781 318.84375 111.710938 318.082031 108.167969 C 317.324219 104.621094 316.199219 101.191406 314.710938 97.886719 C 313.222656 94.578125 311.402344 91.464844 309.25 88.542969 C 307.097656 85.621094 304.664062 82.957031 301.945312 80.554688 Z M 375 89.308594 " clip-rule="nonzero"/></clipPath><linearGradient x1="75.828587" gradientTransform="matrix(3.605769, 0, 0, 3.60293, 0.0000045, 17.07117)" y1="17.797203" x2="104.425981" gradientUnits="userSpaceOnUse" y2="45.459611" id="e667e97bb0"><stop stop-opacity="1" stop-color="rgb(12.5%, 63.899231%, 87.799072%)" offset="0"/><stop stop-opacity="1" stop-color="rgb(12.5%, 63.899231%, 87.799072%)" offset="0.125"/><stop stop-opacity="1" stop-color="rgb(12.5%, 63.745117%, 87.663269%)" offset="0.1875"/><stop stop-opacity="1" stop-color="rgb(12.5%, 63.456726%, 87.411499%)" offset="0.203125"/><stop stop-opacity="1" stop-color="rgb(12.5%, 63.188171%, 87.174988%)" offset="0.21875"/><stop stop-opacity="1" stop-color="rgb(12.5%, 62.918091%, 86.940002%)" offset="0.234375"/><stop stop-opacity="1" stop-color="rgb(12.5%, 62.649536%, 86.703491%)" offset="0.25"/><stop stop-opacity="1" stop-color="rgb(12.5%, 62.379456%, 86.468506%)" offset="0.265625"/><stop stop-opacity="1" stop-color="rgb(12.5%, 62.110901%, 86.231995%)" offset="0.28125"/><stop stop-opacity="1" stop-color="rgb(12.5%, 61.84082%, 85.997009%)" offset="0.296875"/><stop stop-opacity="1" stop-color="rgb(12.5%, 61.572266%, 85.760498%)" offset="0.3125"/><stop stop-opacity="1" stop-color="rgb(12.5%, 61.302185%, 85.523987%)" offset="0.328125"/><stop stop-opacity="1" stop-color="rgb(12.5%, 61.03363%, 85.289001%)" offset="0.34375"/><stop stop-opacity="1" stop-color="rgb(12.5%, 60.765076%, 85.05249%)" offset="0.359375"/><stop stop-opacity="1" stop-color="rgb(12.5%, 60.494995%, 84.817505%)" offset="0.375"/><stop stop-opacity="1" stop-color="rgb(12.5%, 60.22644%, 84.580994%)" offset="0.390625"/><stop stop-opacity="1" stop-color="rgb(12.5%, 59.95636%, 84.346008%)" offset="0.40625"/><stop stop-opacity="1" stop-color="rgb(12.5%, 59.687805%, 84.109497%)" offset="0.421875"/><stop stop-opacity="1" stop-color="rgb(12.5%, 59.417725%, 83.874512%)" offset="0.4375"/><stop stop-opacity="1" stop-color="rgb(12.5%, 59.14917%, 83.638%)" offset="0.453125"/><stop stop-opacity="1" stop-color="rgb(12.5%, 58.879089%, 83.401489%)" offset="0.46875"/><stop stop-opacity="1" stop-color="rgb(12.5%, 58.610535%, 83.166504%)" offset="0.484375"/><stop stop-opacity="1" stop-color="rgb(12.5%, 58.34198%, 82.929993%)" offset="0.494178"/><stop stop-opacity="1" stop-color="rgb(12.5%, 58.207703%, 82.8125%)" offset="0.5"/><stop stop-opacity="1" stop-color="rgb(12.5%, 58.071899%, 82.695007%)" offset="0.505822"/><stop stop-opacity="1" stop-color="rgb(12.5%, 57.937622%, 82.577515%)" offset="0.515625"/><stop stop-opacity="1" stop-color="rgb(12.5%, 57.803345%, 82.458496%)" offset="0.53125"/><stop stop-opacity="1" stop-color="rgb(12.5%, 57.533264%, 82.223511%)" offset="0.546875"/><stop stop-opacity="1" stop-color="rgb(12.5%, 57.264709%, 81.987%)" offset="0.5625"/><stop stop-opacity="1" stop-color="rgb(12.5%, 56.994629%, 81.752014%)" offset="0.578125"/><stop stop-opacity="1" stop-color="rgb(12.5%, 56.726074%, 81.515503%)" offset="0.59375"/><stop stop-opacity="1" stop-color="rgb(12.5%, 56.455994%, 81.278992%)" offset="0.609375"/><stop stop-opacity="1" stop-color="rgb(12.5%, 56.187439%, 81.044006%)" offset="0.625"/><stop stop-opacity="1" stop-color="rgb(12.5%, 55.918884%, 80.807495%)" offset="0.640625"/><stop stop-opacity="1" stop-color="rgb(12.5%, 55.648804%, 80.57251%)" offset="0.65625"/><stop stop-opacity="1" stop-color="rgb(12.5%, 55.380249%, 80.335999%)" offset="0.671875"/><stop stop-opacity="1" stop-color="rgb(12.5%, 55.110168%, 80.101013%)" offset="0.6875"/><stop stop-opacity="1" stop-color="rgb(12.5%, 54.841614%, 79.864502%)" offset="0.703125"/><stop stop-opacity="1" stop-color="rgb(12.5%, 54.571533%, 79.629517%)" offset="0.71875"/><stop stop-opacity="1" stop-color="rgb(12.5%, 54.302979%, 79.393005%)" offset="0.734375"/><stop stop-opacity="1" stop-color="rgb(12.5%, 54.034424%, 79.156494%)" offset="0.75"/><stop stop-opacity="1" stop-color="rgb(12.5%, 53.764343%, 78.921509%)" offset="0.765625"/><stop stop-opacity="1" stop-color="rgb(12.5%, 53.495789%, 78.684998%)" offset="0.78125"/><stop stop-opacity="1" stop-color="rgb(12.5%, 53.225708%, 78.450012%)" offset="0.796875"/><stop stop-opacity="1" stop-color="rgb(12.5%, 52.957153%, 78.213501%)" offset="0.8125"/><stop stop-opacity="1" stop-color="rgb(12.5%, 52.687073%, 77.978516%)" offset="0.828125"/><stop stop-opacity="1" stop-color="rgb(12.5%, 52.418518%, 77.742004%)" offset="0.84375"/><stop stop-opacity="1" stop-color="rgb(12.5%, 52.148438%, 77.507019%)" offset="0.859375"/><stop stop-opacity="1" stop-color="rgb(12.5%, 51.879883%, 77.270508%)" offset="0.875"/><stop stop-opacity="1" stop-color="rgb(12.5%, 51.611328%, 77.033997%)" offset="0.890625"/><stop stop-opacity="1" stop-color="rgb(12.5%, 51.341248%, 76.799011%)" offset="0.90625"/><stop stop-opacity="1" stop-color="rgb(12.5%, 51.10321%, 76.589966%)" offset="0.9375"/><stop stop-opacity="1" stop-color="rgb(12.5%, 50.999451%, 76.499939%)" offset="1"/></linearGradient><clipPath id="3d18bd1dfd"><path d="M 134 18 L 211 18 L 211 56 L 134 56 Z M 134 18 " clip-rule="nonzero"/></clipPath><clipPath id="94f79d8d48"><path d="M 134.640625 51.011719 C 134.53125 50.0625 134.472656 49.113281 134.457031 48.164062 C 134.441406 47.210938 134.472656 46.261719 134.546875 45.3125 C 134.625 44.363281 134.746094 43.417969 134.914062 42.480469 C 135.082031 41.542969 135.292969 40.617188 135.550781 39.699219 C 135.804688 38.78125 136.105469 37.878906 136.449219 36.992188 C 136.792969 36.101562 137.179688 35.234375 137.605469 34.382812 C 138.03125 33.53125 138.5 32.703125 139.007812 31.894531 C 139.515625 31.089844 140.058594 30.308594 140.640625 29.554688 C 141.222656 28.800781 141.839844 28.078125 142.492188 27.382812 C 143.144531 26.6875 143.828125 26.027344 144.542969 25.398438 C 145.257812 24.769531 146.003906 24.175781 146.777344 23.617188 C 147.550781 23.058594 148.347656 22.542969 149.167969 22.058594 C 149.992188 21.578125 150.835938 21.140625 151.703125 20.742188 C 152.566406 20.339844 153.449219 19.984375 154.347656 19.667969 C 155.25 19.355469 156.160156 19.085938 157.085938 18.855469 C 158.011719 18.628906 158.945312 18.449219 159.890625 18.3125 C 160.832031 18.175781 161.78125 18.082031 162.730469 18.035156 C 163.683594 17.992188 164.636719 17.992188 165.589844 18.035156 C 166.539062 18.082031 167.488281 18.171875 168.429688 18.308594 C 169.375 18.445312 170.308594 18.628906 171.234375 18.855469 C 172.160156 19.082031 173.070312 19.351562 173.972656 19.667969 C 174.871094 19.980469 175.753906 20.335938 176.617188 20.738281 C 177.484375 21.136719 178.328125 21.574219 179.152344 22.054688 C 179.972656 22.535156 180.773438 23.054688 181.546875 23.613281 C 182.316406 24.167969 183.0625 24.761719 183.777344 25.390625 C 184.496094 26.019531 185.179688 26.679688 185.832031 27.375 C 186.484375 28.070312 187.101562 28.792969 187.683594 29.546875 C 188.265625 30.300781 188.808594 31.082031 189.316406 31.886719 C 189.824219 32.695312 190.292969 33.523438 190.71875 34.375 C 191.148438 35.222656 191.53125 36.09375 191.875 36.980469 C 192.21875 37.871094 192.519531 38.773438 192.777344 39.691406 C 193.035156 40.605469 193.246094 41.535156 193.414062 42.472656 L 210.109375 45.894531 L 135.179688 55.261719 Z M 134.640625 51.011719 " clip-rule="nonzero"/></clipPath><linearGradient x1="38.773753" gradientTransform="matrix(3.605769, 0, 0, 3.60293, 0.0000045, 17.07117)" y1="12.626978" x2="57.341469" gradientUnits="userSpaceOnUse" y2="-1.009073" id="c57eccf3b4"><stop stop-opacity="1" stop-color="rgb(12.5%, 63.899231%, 87.799072%)" offset="0"/><stop stop-opacity="1" stop-color="rgb(12.5%, 63.871765%, 87.774658%)" offset="0.125"/><stop stop-opacity="1" stop-color="rgb(12.5%, 63.719177%, 87.641907%)" offset="0.140625"/><stop stop-opacity="1" stop-color="rgb(12.5%, 63.470459%, 87.423706%)" offset="0.15625"/><stop stop-opacity="1" stop-color="rgb(12.5%, 63.221741%, 87.205505%)" offset="0.171875"/><stop stop-opacity="1" stop-color="rgb(12.5%, 62.973022%, 86.988831%)" offset="0.1875"/><stop stop-opacity="1" stop-color="rgb(12.5%, 62.724304%, 86.77063%)" offset="0.203125"/><stop stop-opacity="1" stop-color="rgb(12.5%, 62.475586%, 86.552429%)" offset="0.21875"/><stop stop-opacity="1" stop-color="rgb(12.5%, 62.228394%, 86.335754%)" offset="0.234375"/><stop stop-opacity="1" stop-color="rgb(12.5%, 61.979675%, 86.117554%)" offset="0.25"/><stop stop-opacity="1" stop-color="rgb(12.5%, 61.730957%, 85.899353%)" offset="0.265625"/><stop stop-opacity="1" stop-color="rgb(12.5%, 61.482239%, 85.682678%)" offset="0.265801"/><stop stop-opacity="1" stop-color="rgb(12.5%, 61.358643%, 85.574341%)" offset="0.28125"/><stop stop-opacity="1" stop-color="rgb(12.5%, 61.233521%, 85.464478%)" offset="0.296875"/><stop stop-opacity="1" stop-color="rgb(12.5%, 60.984802%, 85.246277%)" offset="0.3125"/><stop stop-opacity="1" stop-color="rgb(12.5%, 60.736084%, 85.029602%)" offset="0.328125"/><stop stop-opacity="1" stop-color="rgb(12.5%, 60.488892%, 84.811401%)" offset="0.34375"/><stop stop-opacity="1" stop-color="rgb(12.5%, 60.240173%, 84.593201%)" offset="0.359375"/><stop stop-opacity="1" stop-color="rgb(12.5%, 59.991455%, 84.376526%)" offset="0.375"/><stop stop-opacity="1" stop-color="rgb(12.5%, 59.742737%, 84.158325%)" offset="0.390625"/><stop stop-opacity="1" stop-color="rgb(12.5%, 59.494019%, 83.940125%)" offset="0.40625"/><stop stop-opacity="1" stop-color="rgb(12.5%, 59.2453%, 83.72345%)" offset="0.421875"/><stop stop-opacity="1" stop-color="rgb(12.5%, 58.996582%, 83.505249%)" offset="0.4375"/><stop stop-opacity="1" stop-color="rgb(12.5%, 58.74939%, 83.287048%)" offset="0.453125"/><stop stop-opacity="1" stop-color="rgb(12.5%, 58.500671%, 83.070374%)" offset="0.46875"/><stop stop-opacity="1" stop-color="rgb(12.5%, 58.251953%, 82.852173%)" offset="0.484375"/><stop stop-opacity="1" stop-color="rgb(12.5%, 58.003235%, 82.633972%)" offset="0.5"/><stop stop-opacity="1" stop-color="rgb(12.5%, 57.754517%, 82.417297%)" offset="0.515625"/><stop stop-opacity="1" stop-color="rgb(12.5%, 57.505798%, 82.199097%)" offset="0.53125"/><stop stop-opacity="1" stop-color="rgb(12.5%, 57.25708%, 81.980896%)" offset="0.546875"/><stop stop-opacity="1" stop-color="rgb(12.5%, 57.009888%, 81.764221%)" offset="0.5625"/><stop stop-opacity="1" stop-color="rgb(12.5%, 56.761169%, 81.546021%)" offset="0.578125"/><stop stop-opacity="1" stop-color="rgb(12.5%, 56.512451%, 81.32782%)" offset="0.59375"/><stop stop-opacity="1" stop-color="rgb(12.5%, 56.263733%, 81.111145%)" offset="0.609375"/><stop stop-opacity="1" stop-color="rgb(12.5%, 56.015015%, 80.892944%)" offset="0.625"/><stop stop-opacity="1" stop-color="rgb(12.5%, 55.766296%, 80.674744%)" offset="0.640625"/><stop stop-opacity="1" stop-color="rgb(12.5%, 55.517578%, 80.458069%)" offset="0.65625"/><stop stop-opacity="1" stop-color="rgb(12.5%, 55.26886%, 80.239868%)" offset="0.671875"/><stop stop-opacity="1" stop-color="rgb(12.5%, 55.021667%, 80.021667%)" offset="0.6875"/><stop stop-opacity="1" stop-color="rgb(12.5%, 54.772949%, 79.804993%)" offset="0.703125"/><stop stop-opacity="1" stop-color="rgb(12.5%, 54.524231%, 79.586792%)" offset="0.71875"/><stop stop-opacity="1" stop-color="rgb(12.5%, 54.275513%, 79.368591%)" offset="0.734199"/><stop stop-opacity="1" stop-color="rgb(12.5%, 54.151917%, 79.260254%)" offset="0.734375"/><stop stop-opacity="1" stop-color="rgb(12.5%, 54.026794%, 79.151917%)" offset="0.75"/><stop stop-opacity="1" stop-color="rgb(12.5%, 53.778076%, 78.933716%)" offset="0.765625"/><stop stop-opacity="1" stop-color="rgb(12.5%, 53.529358%, 78.715515%)" offset="0.78125"/><stop stop-opacity="1" stop-color="rgb(12.5%, 53.282166%, 78.49884%)" offset="0.796875"/><stop stop-opacity="1" stop-color="rgb(12.5%, 53.033447%, 78.28064%)" offset="0.8125"/><stop stop-opacity="1" stop-color="rgb(12.5%, 52.784729%, 78.062439%)" offset="0.828125"/><stop stop-opacity="1" stop-color="rgb(12.5%, 52.536011%, 77.845764%)" offset="0.84375"/><stop stop-opacity="1" stop-color="rgb(12.5%, 52.287292%, 77.627563%)" offset="0.859375"/><stop stop-opacity="1" stop-color="rgb(12.5%, 52.038574%, 77.409363%)" offset="0.875"/><stop stop-opacity="1" stop-color="rgb(12.5%, 51.789856%, 77.192688%)" offset="0.890625"/><stop stop-opacity="1" stop-color="rgb(12.5%, 51.542664%, 76.974487%)" offset="0.90625"/><stop stop-opacity="1" stop-color="rgb(12.5%, 51.293945%, 76.756287%)" offset="0.921875"/><stop stop-opacity="1" stop-color="rgb(12.5%, 51.0849%, 76.573181%)" offset="0.9375"/><stop stop-opacity="1" stop-color="rgb(12.5%, 50.999451%, 76.499939%)" offset="1"/></linearGradient><clipPath id="c46628356d"><path d="M 271 55 L 375 55 L 375 76 L 271 76 Z M 271 55 " clip-rule="nonzero"/></clipPath><clipPath id="ba36ea55e3"><path d="M 295.671875 75.292969 L 375 74.175781 L 351.886719 55.261719 L 271.046875 65.0625 C 279.796875 67.167969 288.007812 70.578125 295.671875 75.292969 Z M 295.671875 75.292969 " clip-rule="nonzero"/></clipPath><linearGradient x1="79.048971" gradientTransform="matrix(3.605769, 0, 0, 3.60293, 0.0000045, 17.07117)" y1="21.815545" x2="101.249065" gradientUnits="userSpaceOnUse" y2="6.589147" id="6197ca1a59"><stop stop-opacity="1" stop-color="rgb(12.5%, 63.899231%, 87.799072%)" offset="0"/><stop stop-opacity="1" stop-color="rgb(12.5%, 63.899231%, 87.799072%)" offset="0.116821"/><stop stop-opacity="1" stop-color="rgb(12.5%, 63.899231%, 87.799072%)" offset="0.125"/><stop stop-opacity="1" stop-color="rgb(12.5%, 63.899231%, 87.799072%)" offset="0.15625"/><stop stop-opacity="1" stop-color="rgb(12.5%, 63.781738%, 87.696838%)" offset="0.171875"/><stop stop-opacity="1" stop-color="rgb(12.5%, 63.511658%, 87.460327%)" offset="0.1875"/><stop stop-opacity="1" stop-color="rgb(12.5%, 63.20343%, 87.190247%)" offset="0.203125"/><stop stop-opacity="1" stop-color="rgb(12.5%, 62.896729%, 86.921692%)" offset="0.21875"/><stop stop-opacity="1" stop-color="rgb(12.5%, 62.590027%, 86.653137%)" offset="0.234375"/><stop stop-opacity="1" stop-color="rgb(12.5%, 62.283325%, 86.384583%)" offset="0.25"/><stop stop-opacity="1" stop-color="rgb(12.5%, 61.976624%, 86.116028%)" offset="0.265625"/><stop stop-opacity="1" stop-color="rgb(12.5%, 61.669922%, 85.845947%)" offset="0.28125"/><stop stop-opacity="1" stop-color="rgb(12.5%, 61.36322%, 85.577393%)" offset="0.296875"/><stop stop-opacity="1" stop-color="rgb(12.5%, 61.054993%, 85.308838%)" offset="0.3125"/><stop stop-opacity="1" stop-color="rgb(12.5%, 60.748291%, 85.040283%)" offset="0.328125"/><stop stop-opacity="1" stop-color="rgb(12.5%, 60.441589%, 84.771729%)" offset="0.34375"/><stop stop-opacity="1" stop-color="rgb(12.5%, 60.134888%, 84.501648%)" offset="0.359375"/><stop stop-opacity="1" stop-color="rgb(12.5%, 59.828186%, 84.233093%)" offset="0.375"/><stop stop-opacity="1" stop-color="rgb(12.5%, 59.521484%, 83.964539%)" offset="0.390625"/><stop stop-opacity="1" stop-color="rgb(12.5%, 59.214783%, 83.695984%)" offset="0.40625"/><stop stop-opacity="1" stop-color="rgb(12.5%, 58.908081%, 83.427429%)" offset="0.421875"/><stop stop-opacity="1" stop-color="rgb(12.5%, 58.599854%, 83.158875%)" offset="0.4375"/><stop stop-opacity="1" stop-color="rgb(12.5%, 58.293152%, 82.888794%)" offset="0.453125"/><stop stop-opacity="1" stop-color="rgb(12.5%, 57.98645%, 82.620239%)" offset="0.46875"/><stop stop-opacity="1" stop-color="rgb(12.5%, 57.679749%, 82.351685%)" offset="0.484375"/><stop stop-opacity="1" stop-color="rgb(12.5%, 57.373047%, 82.08313%)" offset="0.5"/><stop stop-opacity="1" stop-color="rgb(12.5%, 57.066345%, 81.814575%)" offset="0.515625"/><stop stop-opacity="1" stop-color="rgb(12.5%, 56.759644%, 81.544495%)" offset="0.53125"/><stop stop-opacity="1" stop-color="rgb(12.5%, 56.451416%, 81.27594%)" offset="0.546875"/><stop stop-opacity="1" stop-color="rgb(12.5%, 56.144714%, 81.007385%)" offset="0.5625"/><stop stop-opacity="1" stop-color="rgb(12.5%, 55.838013%, 80.738831%)" offset="0.578125"/><stop stop-opacity="1" stop-color="rgb(12.5%, 55.531311%, 80.470276%)" offset="0.59375"/><stop stop-opacity="1" stop-color="rgb(12.5%, 55.224609%, 80.200195%)" offset="0.609375"/><stop stop-opacity="1" stop-color="rgb(12.5%, 54.917908%, 79.931641%)" offset="0.625"/><stop stop-opacity="1" stop-color="rgb(12.5%, 54.611206%, 79.663086%)" offset="0.640625"/><stop stop-opacity="1" stop-color="rgb(12.5%, 54.304504%, 79.394531%)" offset="0.65625"/><stop stop-opacity="1" stop-color="rgb(12.5%, 53.996277%, 79.125977%)" offset="0.671875"/><stop stop-opacity="1" stop-color="rgb(12.5%, 53.689575%, 78.857422%)" offset="0.6875"/><stop stop-opacity="1" stop-color="rgb(12.5%, 53.382874%, 78.587341%)" offset="0.703125"/><stop stop-opacity="1" stop-color="rgb(12.5%, 53.076172%, 78.318787%)" offset="0.71875"/><stop stop-opacity="1" stop-color="rgb(12.5%, 52.76947%, 78.050232%)" offset="0.734375"/><stop stop-opacity="1" stop-color="rgb(12.5%, 52.462769%, 77.781677%)" offset="0.75"/><stop stop-opacity="1" stop-color="rgb(12.5%, 52.156067%, 77.513123%)" offset="0.765625"/><stop stop-opacity="1" stop-color="rgb(12.5%, 51.847839%, 77.243042%)" offset="0.78125"/><stop stop-opacity="1" stop-color="rgb(12.5%, 51.541138%, 76.974487%)" offset="0.796875"/><stop stop-opacity="1" stop-color="rgb(12.5%, 51.234436%, 76.705933%)" offset="0.8125"/><stop stop-opacity="1" stop-color="rgb(12.5%, 51.040649%, 76.535034%)" offset="0.875"/><stop stop-opacity="1" stop-color="rgb(12.5%, 50.999451%, 76.499939%)" offset="0.883179"/><stop stop-opacity="1" stop-color="rgb(12.5%, 50.999451%, 76.499939%)" offset="1"/></linearGradient></defs><rect x="-37.5" width="450" fill="#ffffff" y="-37.499999" height="449.999989" fill-opacity="1"/><rect x="-37.5" width="450" fill="#ffffff" y="-37.499999" height="449.999989" fill-opacity="1"/><rect x="-37.5" width="450" fill="#ffffff" y="-37.499999" height="449.999989" fill-opacity="1"/><path fill="#555555" d="M 240.144531 138.273438 C 237.71875 139.214844 235.375 140.324219 233.109375 141.601562 C 230.84375 142.878906 228.683594 144.3125 226.625 145.902344 C 224.5625 147.488281 222.628906 149.214844 220.816406 151.078125 C 219.003906 152.945312 217.335938 154.929688 215.808594 157.035156 C 214.28125 159.136719 212.914062 161.339844 211.703125 163.640625 C 210.492188 165.941406 209.449219 168.316406 208.582031 170.765625 C 207.710938 173.214844 207.019531 175.710938 206.507812 178.261719 C 205.996094 180.808594 205.671875 183.382812 205.527344 185.976562 C 205.378906 189.746094 205.609375 193.492188 206.214844 197.21875 C 209.796875 193.773438 213.621094 190.628906 217.691406 187.777344 C 221.761719 184.929688 226.023438 182.410156 230.484375 180.222656 C 234.945312 178.03125 239.550781 176.199219 244.292969 174.722656 C 249.039062 173.25 253.871094 172.148438 258.785156 171.421875 L 263.546875 134.527344 C 255.632812 135.074219 247.832031 136.320312 240.144531 138.273438 Z M 240.144531 138.273438 " fill-opacity="1" fill-rule="nonzero"/><g clip-path="url(#58aa0a761f)"><g clip-path="url(#c7994a937d)"><path fill="url(#e667e97bb0)" d="M 274.039062 80.554688 L 274.039062 182.445312 L 375 182.445312 L 375 80.554688 Z M 274.039062 80.554688 " fill-rule="nonzero"/></g></g><path fill="#555555" d="M 196.371094 63.40625 C 196.335938 64.355469 196.257812 65.300781 196.132812 66.242188 C 196.011719 67.1875 195.839844 68.121094 195.628906 69.046875 C 195.414062 69.972656 195.15625 70.886719 194.851562 71.789062 C 194.550781 72.691406 194.207031 73.574219 193.820312 74.445312 C 193.433594 75.3125 193.003906 76.160156 192.535156 76.988281 C 192.070312 77.816406 191.5625 78.621094 191.015625 79.398438 C 190.46875 80.175781 189.886719 80.929688 189.269531 81.652344 C 188.652344 82.375 188 83.066406 187.316406 83.726562 C 186.632812 84.386719 185.917969 85.011719 185.171875 85.605469 C 184.429688 86.195312 183.65625 86.75 182.859375 87.269531 C 182.0625 87.785156 181.242188 88.265625 180.398438 88.703125 C 179.550781 89.144531 178.691406 89.539062 177.808594 89.898438 C 176.925781 90.253906 176.027344 90.566406 175.117188 90.835938 C 174.203125 91.105469 173.28125 91.332031 172.347656 91.511719 C 171.414062 91.695312 170.472656 91.832031 169.523438 91.921875 C 168.578125 92.011719 167.628906 92.058594 166.675781 92.058594 C 165.726562 92.058594 164.777344 92.011719 163.828125 91.921875 C 162.882812 91.832031 161.941406 91.695312 161.007812 91.511719 C 160.074219 91.332031 159.148438 91.105469 158.238281 90.835938 C 157.324219 90.566406 156.429688 90.253906 155.546875 89.898438 C 154.664062 89.539062 153.800781 89.144531 152.957031 88.703125 C 152.113281 88.265625 151.292969 87.785156 150.492188 87.269531 C 149.695312 86.75 148.925781 86.195312 148.179688 85.605469 C 147.433594 85.011719 146.722656 84.386719 146.035156 83.726562 C 145.351562 83.066406 144.699219 82.375 144.082031 81.652344 C 143.464844 80.929688 142.882812 80.175781 142.335938 79.398438 C 141.792969 78.621094 141.285156 77.816406 140.816406 76.988281 C 140.347656 76.160156 139.921875 75.3125 139.535156 74.445312 C 139.144531 73.574219 138.800781 72.691406 138.5 71.789062 C 138.199219 70.886719 137.941406 69.972656 137.726562 69.046875 C 137.511719 68.121094 137.34375 67.1875 137.21875 66.242188 C 137.09375 65.300781 137.015625 64.355469 136.984375 63.40625 C 136.984375 62.359375 136.984375 61.316406 136.984375 60.304688 L 194.710938 53.101562 C 195.878906 56.4375 196.429688 59.871094 196.371094 63.40625 Z M 196.371094 63.40625 " fill-opacity="1" fill-rule="nonzero"/><g clip-path="url(#3d18bd1dfd)"><g clip-path="url(#94f79d8d48)"><path fill="url(#c57eccf3b4)" d="M 134.441406 17.992188 L 134.441406 55.261719 L 210.109375 55.261719 L 210.109375 17.992188 Z M 134.441406 17.992188 " fill-rule="nonzero"/></g></g><path fill="#555555" d="M 140.625 121.195312 C 140.625 121.195312 140.625 121.195312 140.625 120.90625 C 140.617188 120.550781 140.578125 120.203125 140.5 119.855469 C 140.425781 119.507812 140.316406 119.171875 140.171875 118.847656 C 140.03125 118.523438 139.855469 118.214844 139.652344 117.921875 C 139.449219 117.632812 139.222656 117.363281 138.964844 117.117188 C 138.707031 116.871094 138.429688 116.652344 138.132812 116.460938 C 137.832031 116.269531 137.515625 116.109375 137.1875 115.980469 C 136.855469 115.851562 136.515625 115.757812 136.164062 115.695312 C 135.816406 115.632812 135.464844 115.605469 135.109375 115.609375 L 2.847656 117.953125 C 2.460938 117.953125 2.089844 118.027344 1.730469 118.175781 C 1.371094 118.324219 1.058594 118.535156 0.785156 118.808594 C 0.507812 119.082031 0.296875 119.398438 0.148438 119.753906 C 0.00390625 120.113281 -0.0703125 120.484375 -0.0703125 120.871094 C -0.0703125 121.257812 0.00390625 121.628906 0.148438 121.988281 C 0.296875 122.347656 0.507812 122.660156 0.785156 122.933594 C 1.058594 123.207031 1.371094 123.417969 1.730469 123.566406 C 2.089844 123.714844 2.460938 123.789062 2.847656 123.789062 L 122.597656 126.203125 C 123.148438 126.210938 123.691406 126.269531 124.230469 126.378906 C 124.773438 126.484375 125.296875 126.636719 125.808594 126.839844 C 126.324219 127.039062 126.8125 127.285156 127.28125 127.574219 C 127.75 127.863281 128.1875 128.191406 128.597656 128.558594 C 129.007812 128.925781 129.378906 129.328125 129.714844 129.765625 C 130.054688 130.199219 130.347656 130.660156 130.605469 131.148438 C 130.859375 131.636719 131.066406 132.140625 131.230469 132.667969 C 131.394531 133.191406 131.507812 133.730469 131.574219 134.273438 C 131.652344 134.90625 131.664062 135.542969 131.609375 136.179688 C 131.554688 136.8125 131.433594 137.4375 131.25 138.046875 C 131.0625 138.65625 130.816406 139.242188 130.507812 139.800781 C 130.199219 140.359375 129.835938 140.878906 129.417969 141.363281 C 129 141.84375 128.535156 142.277344 128.027344 142.664062 C 127.515625 143.046875 126.972656 143.375 126.394531 143.644531 C 125.816406 143.917969 125.214844 144.125 124.59375 144.269531 C 123.972656 144.414062 123.34375 144.492188 122.703125 144.507812 L 45 146.308594 C 44.554688 146.308594 44.128906 146.394531 43.714844 146.5625 C 43.304688 146.734375 42.941406 146.976562 42.628906 147.289062 C 42.3125 147.605469 42.070312 147.964844 41.902344 148.375 C 41.730469 148.789062 41.648438 149.214844 41.648438 149.660156 C 41.648438 150.101562 41.730469 150.53125 41.902344 150.941406 C 42.070312 151.351562 42.3125 151.714844 42.628906 152.027344 C 42.941406 152.34375 43.304688 152.585938 43.714844 152.753906 C 44.128906 152.925781 44.554688 153.007812 45 153.007812 L 124.328125 154.847656 C 124.9375 154.851562 125.539062 154.917969 126.136719 155.042969 C 126.730469 155.164062 127.308594 155.347656 127.867188 155.589844 C 128.429688 155.828125 128.960938 156.121094 129.460938 156.464844 C 129.960938 156.8125 130.425781 157.203125 130.847656 157.640625 C 131.269531 158.078125 131.644531 158.554688 131.972656 159.066406 C 132.300781 159.582031 132.578125 160.121094 132.796875 160.6875 C 133.015625 161.253906 133.179688 161.839844 133.28125 162.4375 C 133.386719 163.039062 133.429688 163.640625 133.414062 164.25 C 133.40625 164.839844 133.34375 165.421875 133.222656 166 C 133.105469 166.574219 132.929688 167.136719 132.703125 167.679688 C 132.476562 168.222656 132.199219 168.738281 131.871094 169.226562 C 131.542969 169.71875 131.171875 170.171875 130.757812 170.589844 C 130.34375 171.007812 129.890625 171.382812 129.402344 171.714844 C 128.917969 172.042969 128.402344 172.324219 127.859375 172.558594 C 127.316406 172.789062 126.757812 172.96875 126.183594 173.089844 C 125.605469 173.214844 125.023438 173.28125 124.433594 173.292969 L 18.714844 175.238281 C 18.277344 175.238281 17.859375 175.324219 17.457031 175.488281 C 17.054688 175.65625 16.703125 175.894531 16.394531 176.199219 C 16.085938 176.507812 15.847656 176.863281 15.683594 177.265625 C 15.515625 177.664062 15.433594 178.082031 15.433594 178.519531 C 15.433594 178.953125 15.515625 179.371094 15.683594 179.773438 C 15.847656 180.175781 16.085938 180.53125 16.394531 180.835938 C 16.703125 181.144531 17.054688 181.382812 17.457031 181.546875 C 17.859375 181.714844 18.277344 181.796875 18.714844 181.796875 L 121.945312 183.707031 C 122.613281 183.71875 123.269531 183.800781 123.917969 183.953125 C 124.566406 184.105469 125.191406 184.328125 125.792969 184.617188 C 126.394531 184.90625 126.957031 185.253906 127.480469 185.664062 C 128.003906 186.078125 128.476562 186.539062 128.902344 187.054688 C 129.324219 187.566406 129.6875 188.121094 129.992188 188.714844 C 130.292969 189.308594 130.53125 189.925781 130.699219 190.570312 C 130.867188 191.214844 130.964844 191.867188 130.992188 192.535156 C 131.015625 193.199219 130.972656 193.859375 130.851562 194.515625 C 130.769531 195.039062 130.644531 195.546875 130.472656 196.046875 C 130.300781 196.546875 130.085938 197.027344 129.832031 197.492188 C 129.578125 197.953125 129.285156 198.390625 128.953125 198.804688 C 128.621094 199.214844 128.257812 199.597656 127.859375 199.945312 C 127.464844 200.296875 127.039062 200.609375 126.589844 200.882812 C 126.136719 201.160156 125.667969 201.394531 125.175781 201.589844 C 124.683594 201.785156 124.179688 201.933594 123.660156 202.039062 C 123.144531 202.148438 122.621094 202.210938 122.089844 202.226562 L 73.125 203.957031 C 72.675781 203.957031 72.242188 204.042969 71.828125 204.214844 C 71.414062 204.382812 71.046875 204.628906 70.726562 204.945312 C 70.410156 205.265625 70.164062 205.628906 69.992188 206.046875 C 69.820312 206.460938 69.734375 206.894531 69.734375 207.34375 C 69.734375 207.789062 69.820312 208.222656 69.992188 208.636719 C 70.164062 209.054688 70.410156 209.417969 70.726562 209.738281 C 71.046875 210.054688 71.414062 210.300781 71.828125 210.472656 C 72.242188 210.644531 72.675781 210.730469 73.125 210.730469 L 114.519531 212.167969 C 114.886719 212.183594 115.25 212.21875 115.613281 212.273438 C 115.976562 212.332031 116.335938 212.410156 116.691406 212.507812 C 117.046875 212.605469 117.390625 212.726562 117.730469 212.863281 C 118.074219 213.003906 118.402344 213.164062 118.722656 213.339844 C 119.046875 213.519531 119.355469 213.714844 119.652344 213.929688 C 119.953125 214.144531 120.238281 214.378906 120.507812 214.625 C 120.777344 214.875 121.035156 215.136719 121.273438 215.414062 C 121.515625 215.691406 121.738281 215.984375 121.941406 216.289062 C 122.148438 216.59375 122.335938 216.910156 122.503906 217.234375 C 122.671875 217.5625 122.820312 217.894531 122.949219 218.238281 C 123.078125 218.585938 123.1875 218.933594 123.277344 219.292969 C 123.363281 219.648438 123.429688 220.007812 123.476562 220.371094 C 123.523438 220.738281 123.546875 221.101562 123.546875 221.46875 C 123.550781 221.835938 123.53125 222.203125 123.492188 222.570312 C 123.449219 222.933594 123.386719 223.296875 123.304688 223.652344 C 123.222656 224.011719 123.117188 224.363281 122.992188 224.707031 C 122.664062 225.585938 122.214844 226.398438 121.644531 227.140625 C 121.070312 227.882812 120.402344 228.527344 119.636719 229.070312 C 118.871094 229.613281 118.046875 230.03125 117.152344 230.324219 C 116.261719 230.621094 115.347656 230.777344 114.410156 230.796875 L 79.328125 231.984375 L 17.164062 233.605469 C 16.804688 233.605469 16.460938 233.675781 16.128906 233.8125 C 15.796875 233.949219 15.503906 234.144531 15.25 234.398438 C 14.996094 234.652344 14.800781 234.945312 14.664062 235.273438 C 14.527344 235.605469 14.460938 235.949219 14.460938 236.308594 C 14.460938 236.667969 14.527344 237.011719 14.664062 237.34375 C 14.800781 237.675781 14.996094 237.964844 15.25 238.21875 C 15.503906 238.472656 15.796875 238.667969 16.128906 238.804688 C 16.460938 238.941406 16.804688 239.011719 17.164062 239.011719 L 100.421875 241.210938 C 101.242188 241.226562 102.050781 241.351562 102.839844 241.582031 C 103.628906 241.8125 104.378906 242.140625 105.082031 242.566406 C 105.785156 242.996094 106.417969 243.503906 106.988281 244.101562 C 107.554688 244.695312 108.035156 245.355469 108.429688 246.078125 C 108.824219 246.800781 109.117188 247.5625 109.308594 248.359375 C 109.5 249.160156 109.585938 249.972656 109.5625 250.792969 C 109.539062 251.617188 109.410156 252.421875 109.175781 253.210938 C 108.9375 253.996094 108.605469 254.742188 108.171875 255.441406 C 107.769531 256.089844 107.296875 256.679688 106.75 257.210938 C 106.203125 257.742188 105.597656 258.203125 104.9375 258.585938 C 104.277344 258.96875 103.578125 259.265625 102.847656 259.476562 C 102.113281 259.6875 101.363281 259.808594 100.601562 259.835938 L 46.515625 261.746094 C 46.097656 261.765625 45.695312 261.859375 45.3125 262.027344 C 44.929688 262.195312 44.59375 262.429688 44.296875 262.726562 C 44.003906 263.023438 43.773438 263.367188 43.609375 263.75 C 43.445312 264.132812 43.355469 264.535156 43.339844 264.953125 C 43.328125 265.386719 43.394531 265.808594 43.550781 266.214844 C 43.703125 266.625 43.929688 266.984375 44.226562 267.304688 C 44.523438 267.621094 44.871094 267.871094 45.265625 268.050781 C 45.664062 268.230469 46.078125 268.324219 46.515625 268.339844 L 90.144531 269.996094 C 90.519531 269.96875 90.886719 269.996094 91.25 270.078125 C 91.617188 270.164062 91.960938 270.304688 92.28125 270.496094 C 92.601562 270.6875 92.886719 270.921875 93.136719 271.203125 C 93.382812 271.484375 93.582031 271.796875 93.734375 272.140625 C 93.882812 272.480469 93.980469 272.839844 94.019531 273.210938 C 94.058594 273.585938 94.039062 273.953125 93.964844 274.320312 C 93.886719 274.6875 93.757812 275.03125 93.574219 275.359375 C 93.390625 275.683594 93.160156 275.976562 92.882812 276.230469 C 90.683594 278.824219 88.414062 281.382812 85.996094 283.867188 C 76.839844 293.421875 66.792969 301.929688 55.855469 309.390625 C 44.921875 316.851562 33.335938 323.105469 21.09375 328.148438 L 24.699219 338.308594 C 25.996094 337.730469 168.101562 285.34375 140.625 121.195312 Z M 140.625 121.195312 " fill-opacity="1" fill-rule="nonzero"/><path fill="#555555" d="M 34.472656 152.542969 C 34.828125 152.542969 35.175781 152.472656 35.507812 152.335938 C 35.835938 152.199219 36.128906 152.003906 36.382812 151.75 C 36.636719 151.496094 36.832031 151.203125 36.96875 150.875 C 37.105469 150.542969 37.175781 150.199219 37.175781 149.839844 C 37.175781 149.480469 37.105469 149.136719 36.96875 148.804688 C 36.832031 148.472656 36.636719 148.183594 36.382812 147.929688 C 36.128906 147.675781 35.835938 147.480469 35.507812 147.34375 C 35.175781 147.207031 34.828125 147.136719 34.472656 147.136719 L 30 147.136719 C 29.640625 147.136719 29.296875 147.207031 28.964844 147.34375 C 28.632812 147.480469 28.339844 147.675781 28.085938 147.929688 C 27.835938 148.183594 27.640625 148.472656 27.5 148.804688 C 27.363281 149.136719 27.296875 149.480469 27.296875 149.839844 C 27.296875 150.199219 27.363281 150.542969 27.5 150.875 C 27.640625 151.203125 27.835938 151.496094 28.085938 151.75 C 28.339844 152.003906 28.632812 152.199219 28.964844 152.335938 C 29.296875 152.472656 29.640625 152.542969 30 152.542969 Z M 34.472656 152.542969 " fill-opacity="1" fill-rule="nonzero"/><path fill="#555555" d="M 65.15625 210.1875 C 65.515625 210.1875 65.859375 210.121094 66.191406 209.984375 C 66.523438 209.84375 66.816406 209.648438 67.070312 209.398438 C 67.320312 209.144531 67.515625 208.851562 67.65625 208.519531 C 67.792969 208.1875 67.859375 207.84375 67.859375 207.484375 C 67.859375 207.128906 67.792969 206.78125 67.65625 206.453125 C 67.515625 206.121094 67.320312 205.828125 67.070312 205.574219 C 66.816406 205.320312 66.523438 205.125 66.191406 204.988281 C 65.859375 204.851562 65.515625 204.785156 65.15625 204.785156 L 52.859375 204.785156 C 52.503906 204.785156 52.15625 204.851562 51.824219 204.988281 C 51.496094 205.125 51.203125 205.320312 50.949219 205.574219 C 50.695312 205.828125 50.5 206.121094 50.363281 206.453125 C 50.226562 206.78125 50.15625 207.128906 50.15625 207.484375 C 50.15625 207.84375 50.226562 208.1875 50.363281 208.519531 C 50.5 208.851562 50.695312 209.144531 50.949219 209.398438 C 51.203125 209.648438 51.496094 209.84375 51.824219 209.984375 C 52.15625 210.121094 52.503906 210.1875 52.859375 210.1875 Z M 65.15625 210.1875 " fill-opacity="1" fill-rule="nonzero"/><path fill="#555555" d="M 44.132812 210.1875 C 44.492188 210.1875 44.839844 210.121094 45.167969 209.984375 C 45.5 209.84375 45.792969 209.648438 46.046875 209.398438 C 46.300781 209.144531 46.496094 208.851562 46.632812 208.519531 C 46.769531 208.1875 46.839844 207.84375 46.839844 207.484375 C 46.839844 207.128906 46.769531 206.78125 46.632812 206.453125 C 46.496094 206.121094 46.300781 205.828125 46.046875 205.574219 C 45.792969 205.320312 45.5 205.125 45.167969 204.988281 C 44.839844 204.851562 44.492188 204.785156 44.132812 204.785156 L 42.042969 204.785156 C 41.683594 204.785156 41.339844 204.851562 41.007812 204.988281 C 40.675781 205.125 40.382812 205.320312 40.132812 205.574219 C 39.878906 205.828125 39.683594 206.121094 39.542969 206.453125 C 39.40625 206.78125 39.339844 207.128906 39.339844 207.484375 C 39.339844 207.84375 39.40625 208.1875 39.542969 208.519531 C 39.683594 208.851562 39.878906 209.144531 40.132812 209.398438 C 40.382812 209.648438 40.675781 209.84375 41.007812 209.984375 C 41.339844 210.121094 41.683594 210.1875 42.042969 210.1875 Z M 44.132812 210.1875 " fill-opacity="1" fill-rule="nonzero"/><path fill="#555555" d="M 36.816406 267.835938 C 37.171875 267.835938 37.519531 267.765625 37.851562 267.628906 C 38.179688 267.492188 38.472656 267.296875 38.726562 267.042969 C 38.980469 266.789062 39.175781 266.496094 39.3125 266.167969 C 39.449219 265.835938 39.519531 265.492188 39.519531 265.132812 C 39.519531 264.773438 39.449219 264.429688 39.3125 264.097656 C 39.175781 263.769531 38.980469 263.476562 38.726562 263.222656 C 38.472656 262.96875 38.179688 262.773438 37.851562 262.636719 C 37.519531 262.5 37.171875 262.429688 36.816406 262.429688 L 30.867188 262.429688 C 30.507812 262.429688 30.160156 262.5 29.832031 262.636719 C 29.5 262.773438 29.207031 262.96875 28.953125 263.222656 C 28.699219 263.476562 28.503906 263.769531 28.367188 264.097656 C 28.230469 264.429688 28.160156 264.773438 28.160156 265.132812 C 28.160156 265.492188 28.230469 265.835938 28.367188 266.167969 C 28.503906 266.496094 28.699219 266.789062 28.953125 267.042969 C 29.207031 267.296875 29.5 267.492188 29.832031 267.628906 C 30.160156 267.765625 30.507812 267.835938 30.867188 267.835938 Z M 36.816406 267.835938 " fill-opacity="1" fill-rule="nonzero"/><g clip-path="url(#c46628356d)"><g clip-path="url(#ba36ea55e3)"><path fill="url(#6197ca1a59)" d="M 271.046875 55.261719 L 271.046875 75.292969 L 375 75.292969 L 375 55.261719 Z M 271.046875 55.261719 " fill-rule="nonzero"/></g></g><path fill="#555555" d="M 259.363281 257.242188 C 258.203125 257.242188 257.042969 257.210938 255.882812 257.152344 C 254.726562 257.09375 253.566406 257.003906 252.414062 256.886719 C 251.257812 256.769531 250.109375 256.625 248.960938 256.449219 C 247.8125 256.273438 246.671875 256.070312 245.535156 255.835938 C 244.398438 255.605469 243.269531 255.34375 242.144531 255.054688 C 241.019531 254.765625 239.90625 254.449219 238.796875 254.101562 C 237.6875 253.757812 236.589844 253.386719 235.5 252.984375 C 234.414062 252.585938 233.335938 252.15625 232.265625 251.703125 C 231.199219 251.246094 230.144531 250.765625 229.101562 250.257812 C 228.058594 249.75 227.027344 249.21875 226.011719 248.660156 C 224.992188 248.097656 223.992188 247.515625 223.003906 246.90625 C 222.019531 246.296875 221.046875 245.660156 220.089844 245.003906 C 219.136719 244.34375 218.199219 243.664062 217.277344 242.957031 C 216.355469 242.253906 215.453125 241.523438 214.570312 240.773438 C 213.683594 240.023438 212.820312 239.25 211.976562 238.457031 C 211.128906 237.660156 210.304688 236.847656 209.5 236.011719 C 208.695312 235.175781 207.914062 234.320312 207.152344 233.445312 C 206.390625 232.570312 205.652344 231.675781 204.933594 230.765625 C 204.21875 229.851562 203.523438 228.921875 202.855469 227.976562 C 202.183594 227.027344 201.539062 226.066406 200.917969 225.085938 C 200.296875 224.105469 199.699219 223.113281 199.128906 222.101562 C 198.558594 221.09375 198.011719 220.070312 197.492188 219.035156 C 196.972656 217.996094 196.480469 216.949219 196.011719 215.886719 C 195.546875 214.824219 195.105469 213.753906 194.691406 212.667969 C 194.277344 211.585938 193.894531 210.492188 193.535156 209.390625 C 193.175781 208.285156 192.847656 207.175781 192.542969 206.054688 C 192.242188 204.9375 191.96875 203.808594 191.722656 202.675781 C 191.476562 201.542969 191.261719 200.40625 191.074219 199.261719 C 190.882812 198.117188 190.722656 196.96875 190.59375 195.816406 C 190.464844 194.664062 190.363281 193.507812 190.289062 192.351562 C 190.21875 191.195312 190.171875 190.035156 190.160156 188.878906 C 190.144531 187.71875 190.160156 186.558594 190.203125 185.398438 C 191.609375 148 223.558594 118.925781 261.058594 118.925781 L 303.859375 118.925781 C 303.859375 117.746094 303.800781 116.570312 303.683594 115.394531 C 303.570312 114.21875 303.394531 113.054688 303.164062 111.898438 C 302.933594 110.738281 302.648438 109.597656 302.304688 108.46875 C 301.960938 107.339844 301.566406 106.226562 301.113281 105.136719 C 300.660156 104.046875 300.15625 102.984375 299.601562 101.941406 C 299.042969 100.902344 298.4375 99.890625 297.78125 98.910156 C 297.125 97.929688 296.421875 96.980469 295.671875 96.070312 C 294.925781 95.15625 294.132812 94.285156 293.296875 93.449219 C 292.460938 92.613281 291.589844 91.824219 290.675781 91.074219 C 289.761719 90.328125 288.816406 89.625 287.832031 88.96875 C 286.851562 88.3125 285.839844 87.707031 284.796875 87.152344 C 283.757812 86.59375 282.691406 86.089844 281.597656 85.640625 C 280.507812 85.1875 279.398438 84.789062 278.265625 84.449219 C 277.136719 84.105469 275.992188 83.820312 274.835938 83.589844 C 273.675781 83.359375 272.511719 83.1875 271.335938 83.070312 C 270.160156 82.953125 268.980469 82.898438 267.800781 82.898438 L 259.363281 82.898438 C 257.765625 82.898438 256.167969 82.9375 254.570312 83.015625 C 252.972656 83.089844 251.378906 83.199219 249.789062 83.347656 C 248.195312 83.496094 246.609375 83.679688 245.023438 83.902344 C 243.441406 84.121094 241.863281 84.375 240.292969 84.667969 C 238.722656 84.960938 237.15625 85.285156 235.601562 85.648438 C 234.042969 86.011719 232.496094 86.410156 230.957031 86.84375 C 229.417969 87.277344 227.890625 87.746094 226.371094 88.246094 C 224.855469 88.75 223.351562 89.285156 221.859375 89.859375 C 220.363281 90.429688 218.886719 91.03125 217.421875 91.671875 C 215.953125 92.308594 214.503906 92.980469 213.070312 93.683594 C 211.636719 94.390625 210.214844 95.125 208.816406 95.894531 C 207.414062 96.664062 206.03125 97.460938 204.667969 98.292969 C 203.300781 99.125 201.957031 99.988281 200.628906 100.878906 C 199.304688 101.773438 198 102.695312 196.714844 103.644531 C 195.433594 104.597656 194.171875 105.578125 192.933594 106.589844 C 191.691406 107.597656 190.476562 108.632812 189.285156 109.699219 C 188.09375 110.761719 186.925781 111.855469 185.785156 112.972656 C 184.640625 114.089844 183.527344 115.230469 182.4375 116.398438 C 181.347656 117.566406 180.28125 118.761719 179.246094 119.976562 C 178.210938 121.195312 177.203125 122.433594 176.222656 123.695312 C 175.246094 124.957031 174.292969 126.242188 173.375 127.546875 C 172.453125 128.851562 171.5625 130.179688 170.699219 131.523438 C 169.839844 132.871094 169.011719 134.234375 168.210938 135.617188 C 167.414062 137.003906 166.648438 138.402344 165.910156 139.820312 C 165.175781 141.242188 164.476562 142.675781 163.804688 144.125 C 163.136719 145.574219 162.5 147.039062 161.898438 148.519531 C 161.292969 150 160.726562 151.492188 160.191406 152.996094 C 159.65625 154.503906 159.15625 156.019531 158.691406 157.546875 C 158.222656 159.074219 157.792969 160.613281 157.398438 162.160156 C 157 163.707031 156.640625 165.261719 156.316406 166.828125 C 155.992188 168.390625 155.703125 169.960938 155.449219 171.539062 C 155.195312 173.117188 154.976562 174.699219 154.796875 176.285156 C 154.140625 183.65625 153.023438 190.960938 151.441406 198.191406 C 150.578125 202.183594 149.574219 206.144531 148.4375 210.074219 C 147.300781 214 146.03125 217.882812 144.625 221.722656 C 143.222656 225.558594 141.6875 229.347656 140.027344 233.082031 C 138.363281 236.816406 136.574219 240.488281 134.660156 244.101562 C 132.746094 247.714844 130.707031 251.257812 128.550781 254.730469 C 126.394531 258.203125 124.117188 261.597656 121.730469 264.914062 C 119.339844 268.230469 116.835938 271.460938 114.226562 274.609375 C 111.613281 277.753906 108.898438 280.808594 106.078125 283.769531 C 103.253906 286.726562 100.335938 289.589844 97.320312 292.347656 C 94.300781 295.109375 91.195312 297.761719 87.996094 300.3125 C 84.796875 302.859375 81.515625 305.292969 78.148438 307.617188 C 74.78125 309.941406 71.339844 312.144531 67.824219 314.234375 C 64.308594 316.320312 60.722656 318.285156 57.070312 320.128906 C 53.417969 321.972656 49.710938 323.6875 45.941406 325.273438 C 42.171875 326.863281 38.351562 328.320312 34.484375 329.648438 C 30.613281 330.976562 26.703125 332.167969 22.753906 333.226562 C 23.066406 334.390625 23.445312 335.53125 23.886719 336.652344 C 24.328125 337.773438 24.828125 338.867188 25.386719 339.933594 C 25.945312 341 26.5625 342.03125 27.234375 343.03125 C 27.910156 344.03125 28.632812 344.988281 29.410156 345.910156 C 30.191406 346.828125 31.015625 347.703125 31.890625 348.53125 C 32.761719 349.363281 33.679688 350.140625 34.636719 350.871094 C 35.597656 351.601562 36.59375 352.273438 37.625 352.894531 C 38.660156 353.515625 39.722656 354.078125 40.816406 354.582031 C 41.910156 355.085938 43.027344 355.53125 44.171875 355.914062 C 45.3125 356.292969 46.476562 356.613281 47.652344 356.867188 C 48.828125 357.125 50.019531 357.3125 51.214844 357.441406 C 52.414062 357.566406 53.617188 357.625 54.820312 357.621094 C 56.027344 357.613281 57.226562 357.542969 58.425781 357.40625 C 59.621094 357.269531 60.808594 357.066406 61.984375 356.800781 C 63.160156 356.535156 64.316406 356.203125 65.457031 355.8125 C 66.59375 355.417969 67.707031 354.964844 68.796875 354.449219 C 74.527344 351.71875 80.125 348.742188 85.59375 345.515625 C 91.058594 342.289062 96.371094 338.828125 101.53125 335.132812 C 106.691406 331.4375 111.675781 327.519531 116.488281 323.382812 C 121.296875 319.242188 125.917969 314.902344 130.34375 310.355469 C 134.769531 305.808594 138.988281 301.074219 142.992188 296.152344 C 147 291.230469 150.78125 286.144531 154.335938 280.886719 C 157.890625 275.632812 161.203125 270.230469 164.28125 264.679688 C 167.355469 259.132812 170.179688 253.457031 172.753906 247.660156 C 175.160156 251.148438 177.769531 254.480469 180.582031 257.652344 C 183.394531 260.828125 186.386719 263.820312 189.558594 266.632812 C 192.734375 269.445312 196.066406 272.054688 199.554688 274.464844 C 203.042969 276.875 206.664062 279.066406 210.417969 281.039062 C 214.171875 283.011719 218.035156 284.75 221.996094 286.257812 C 225.960938 287.765625 230.003906 289.027344 234.121094 290.046875 C 238.238281 291.0625 242.402344 291.832031 246.613281 292.347656 C 250.824219 292.863281 255.050781 293.121094 259.289062 293.128906 C 261.058594 293.128906 262.816406 293.21875 264.574219 293.394531 C 266.332031 293.570312 268.078125 293.832031 269.808594 294.175781 C 271.539062 294.523438 273.25 294.957031 274.9375 295.46875 C 276.628906 295.984375 278.285156 296.582031 279.917969 297.257812 C 281.546875 297.9375 283.140625 298.695312 284.695312 299.527344 C 286.253906 300.363281 287.761719 301.269531 289.230469 302.253906 C 290.695312 303.238281 292.109375 304.289062 293.472656 305.410156 C 294.835938 306.535156 296.140625 307.71875 297.386719 308.96875 C 298.632812 310.21875 299.816406 311.527344 300.933594 312.894531 C 302.050781 314.261719 303.097656 315.679688 304.074219 317.148438 C 305.054688 318.617188 305.957031 320.128906 306.785156 321.6875 C 307.613281 323.246094 308.363281 324.839844 309.035156 326.472656 C 309.707031 328.105469 310.296875 329.765625 310.808594 331.453125 C 311.316406 333.144531 311.738281 334.855469 312.082031 336.585938 C 312.421875 338.316406 312.675781 340.0625 312.84375 341.816406 C 313.011719 343.574219 313.09375 345.335938 313.089844 347.097656 C 313.699219 347.097656 314.3125 347.074219 314.921875 347.035156 C 315.53125 346.992188 316.136719 346.929688 316.742188 346.851562 C 317.351562 346.773438 317.953125 346.671875 318.550781 346.554688 C 319.152344 346.4375 319.746094 346.296875 320.335938 346.144531 C 320.929688 345.988281 321.515625 345.8125 322.09375 345.617188 C 322.671875 345.425781 323.246094 345.214844 323.8125 344.984375 C 324.378906 344.753906 324.9375 344.507812 325.488281 344.242188 C 326.039062 343.976562 326.582031 343.695312 327.113281 343.394531 C 327.644531 343.09375 328.167969 342.78125 328.679688 342.445312 C 329.191406 342.113281 329.695312 341.765625 330.183594 341.402344 C 330.675781 341.035156 331.152344 340.65625 331.621094 340.261719 C 332.085938 339.867188 332.539062 339.457031 332.980469 339.035156 C 333.417969 338.609375 333.847656 338.171875 334.257812 337.722656 C 334.671875 337.269531 335.066406 336.808594 335.449219 336.332031 C 335.832031 335.855469 336.199219 335.367188 336.554688 334.867188 C 336.90625 334.371094 337.242188 333.859375 337.558594 333.339844 C 337.878906 332.816406 338.179688 332.289062 338.46875 331.746094 C 338.753906 331.207031 339.019531 330.660156 339.273438 330.101562 C 339.523438 329.546875 339.753906 328.980469 339.96875 328.410156 C 340.183594 327.839844 340.382812 327.261719 340.558594 326.675781 C 340.738281 326.09375 340.898438 325.503906 341.039062 324.910156 C 341.179688 324.3125 341.300781 323.714844 341.402344 323.113281 C 341.503906 322.511719 341.589844 321.90625 341.652344 321.300781 C 341.714844 320.691406 341.761719 320.082031 341.785156 319.472656 C 341.8125 318.863281 341.816406 318.253906 341.804688 317.640625 C 341.792969 317.03125 341.757812 316.421875 341.707031 315.8125 C 341.652344 315.207031 341.582031 314.597656 341.492188 313.996094 C 341.402344 313.390625 341.292969 312.792969 341.164062 312.195312 C 341.035156 311.597656 340.886719 311.003906 340.71875 310.417969 C 340.550781 309.828125 340.367188 309.25 340.164062 308.671875 C 339.960938 308.097656 339.738281 307.527344 339.5 306.964844 C 339.257812 306.40625 339 305.851562 338.726562 305.304688 C 337.777344 303.507812 336.769531 301.746094 335.703125 300.019531 C 334.636719 298.292969 333.515625 296.601562 332.332031 294.949219 C 331.152344 293.300781 329.914062 291.6875 328.625 290.121094 C 327.335938 288.550781 325.996094 287.03125 324.601562 285.550781 C 323.207031 284.074219 321.765625 282.644531 320.277344 281.265625 C 318.785156 279.886719 317.253906 278.554688 315.671875 277.28125 C 314.09375 276.003906 312.472656 274.78125 310.808594 273.613281 C 309.148438 272.445312 307.445312 271.335938 305.710938 270.285156 C 303.972656 269.234375 302.203125 268.242188 300.398438 267.308594 C 298.59375 266.375 296.757812 265.503906 294.894531 264.695312 C 293.03125 263.886719 291.140625 263.144531 289.226562 262.460938 C 287.3125 261.78125 285.378906 261.164062 283.425781 260.613281 C 281.46875 260.0625 279.496094 259.582031 277.507812 259.164062 C 275.519531 258.746094 273.519531 258.398438 271.507812 258.113281 C 269.496094 257.832031 267.476562 257.617188 265.449219 257.472656 C 263.421875 257.328125 261.394531 257.25 259.363281 257.242188 Z M 259.363281 257.242188 " fill-opacity="1" fill-rule="nonzero"/></svg>